<svg xmlns="http://www.w3.org/2000/svg" width="83.086" height="90.321" viewBox="0 0 83.086 90.321"><g transform="translate(101.664 71.17) rotate(149)"><path d="M0,0C0,.484,0,.886,0,1.288c.07,3.052.156,6.1.2,9.156a1.086,1.086,0,0,0,.751,1.114,37.988,37.988,0,0,0,9.749,3.233c.533.084.705-.027.769-.577.313-2.691.669-5.376,1.015-8.063.042-.329.077-.592-.35-.737A71.834,71.834,0,0,1,.283.094,2.124,2.124,0,0,0,0,0Z" transform="translate(30.395 45.838)"/><path d="M14.151.986,3.229,0,0,8.812c.826.137,1.677.332,2.538.412q3.742.347,7.491.6a.909.909,0,0,0,.74-.37c1.157-2.792,2.27-5.6,3.39-8.41C14.173,1.011,14.147.962,14.151.986Z" transform="translate(47.308 70.276)"/><path d="M8.895,15.11c.279-1.586.656-3.148.806-4.731.172-1.817.158-3.653.184-5.481A.928.928,0,0,0,9.519,4.2C7.15,2.8,4.762,1.427,2.377.048A1.043,1.043,0,0,0,2.169,0c-.082.525-.133,1.053-.249,1.567q-.9,4-1.838,7.983c-.075.321-.2.589.172.817a55.6,55.6,0,0,0,8.319,4.678A2.646,2.646,0,0,0,8.895,15.11Z" transform="translate(20.685 52.772)"/><path d="M0,7.808A46.285,46.285,0,0,1,10.667,9.5a.855.855,0,0,0,1.157-.528c1.085-2.111,2.218-4.2,3.325-6.3.2-.379.36-.778.579-1.255C14.491,1.176,13.312.87,12.114.713c-2.195-.288-4.4-.5-6.6-.71A.918.918,0,0,0,4.782.3C3.219,2.676,1.691,5.079.155,7.477A3.6,3.6,0,0,0,0,7.808Z" transform="translate(31.251 77.76)"/><path d="M4.706,0A37.328,37.328,0,0,1,0,9.8c1.746.552,3.45,1.094,5.2.59a23.567,23.567,0,0,1,5.471-.879.836.836,0,0,0,.63-.342c1.122-2.583,2.209-5.182,3.219-7.906C11.118,1.592,7.854,1.556,4.706,0Z" transform="translate(24.934 68.081)"/><path d="M14.271,5.294C11.022,4.189,8.442,2.1,5.873,0,4.106,2.128,2.639,4.463,0,5.542.588,8.507,2.739,10.3,4.908,12.073a.785.785,0,0,0,.657.138,18.055,18.055,0,0,0,8.554-6.618C14.156,5.537,14.18,5.473,14.271,5.294Z" transform="translate(10.369 72.652)"/><path d="M13.03.921,2.18,0,0,8.157,10.725,9Z" transform="translate(39.712 60.851)"/><path d="M1.507,0,0,7.483l10.578.577L12.2,0Z" transform="translate(52.989 54.197)"/><path d="M14.574,4.971c-.934-1.154-1.663-2.49-3.358-2.95l1.923-.758.043-.21A6.02,6.02,0,0,0,12.121.776c-.514-.042-1.04.053-1.551,0A3.6,3.6,0,0,1,9.29.433,4.914,4.914,0,0,0,5.855.194c-.167.035-.37.373-.381.58a7.078,7.078,0,0,0,.139,1.235h5.2l.082.164-.7.77c1.062.386,1.162.82.977,1.846A2.934,2.934,0,0,0,11.6,7.274l.6-1.066.318.192a3.389,3.389,0,0,1-.085.793q-1.134,3.193-2.3,6.374Q5.645,25.684,1.143,37.793C.9,38.448.559,39.066.284,39.71c-.117.274-.182.57-.284.9a10.73,10.73,0,0,0,1.115.178c.407.02.637-.069.728-.613a15,15,0,0,1,.811-2.639C3.818,34.354,5,31.182,6.182,28.005c.854-2.3,1.7-4.607,2.562-6.907a10.794,10.794,0,0,1,1.021-2.5c1.457-2.056,1.718-4.55,2.664-6.788a47.32,47.32,0,0,0,1.7-4.826c.129-.43-.138-.978-.244-1.591Z" transform="translate(7.171 36.279)"/><path d="M9.228,9.107c0-.736-.017-1.588,0-2.44.043-1.76.086-3.521.174-5.279C9.426.971,9.33.829,8.935.674,6.643-.226,4.265.032,1.888.042L0,8.431Z" transform="translate(61.889 62.327)"/><path d="M0,38.059c.342.173.616.324.9.453.48.219.75.036.92-.449,1.345-3.833,2.678-7.67,4.062-11.489,1.633-4.5,3.306-8.99,4.976-13.479.882-2.371,1.81-4.725,2.685-7.1.515-1.4.963-2.819,1.449-4.227.16-.465.344-.922.518-1.386-.878-.644-1.4-.483-1.774.53Q7.6,17.51,1.459,34.1C.976,35.413.493,36.722,0,38.059Z" transform="translate(21.674 0)"/><path d="M7.79.007c-1.038,0-2.076-.025-3.112.019a.928.928,0,0,0-.672.4C2.671,2.962,1.369,5.515.061,8.065A1.745,1.745,0,0,0,0,8.385c1.021,0,2.007.04,2.986-.026a1.114,1.114,0,0,0,.75-.555,11.006,11.006,0,0,0,.582-1.651c.294-.923.525-1.87.875-2.77A6.425,6.425,0,0,1,7.79.007Z" transform="translate(53.812 80.171)"/><path d="M2.783,3.264C2.445,4.179,2.1,5.1,1.763,6.03c-.351.977-.1,1.344.912,1.452L3.945,4.438a1.562,1.562,0,0,0,1.781-.516A5.485,5.485,0,0,1,4.251,1.131c-.083-.347-.2-.567-.581-.617C2.451.354,1.236.174,0,0-.061,1.286.665,2.093,2.783,3.264Z" transform="translate(3.088 77.402)"/><path d="M2.739,5.7c.256-.281.529-.551.762-.85a.9.9,0,0,0,.2-.507A5.465,5.465,0,0,1,4.638.469C4.263.332,3.865.2,3.477.042A4.036,4.036,0,0,0,1.085.606,13.191,13.191,0,0,1,0,1.465L2.619,5.922Z" transform="translate(0 71.306)"/><path d="M4.029,2.427c-.033-.415-.085-.806-.091-1.2C3.922.379,3.614,0,2.773,0,1.9,0,1.035.089,0,.149c.207.452.351.718.453,1A5.124,5.124,0,0,0,.821,2.255a1.277,1.277,0,0,0,.831.566,8.18,8.18,0,0,0,1.661-.246C3.566,2.531,3.816,2.472,4.029,2.427Z" transform="translate(22.041 40.929)"/><path d="M3.345.238,0,0A2.658,2.658,0,0,0,2.185,1.359C2.822,1.338,3.152.97,3.345.238Z" transform="translate(66.319 80.091)"/></g></svg>